<svg xmlns="http://www.w3.org/2000/svg" width="24" height="24" viewBox="0 0 24 24">
  <path d="M13.976 9.15c-2.172-.806-3.396-1.38-3.396-2.418 0-.836.918-1.415 2.322-1.415 2.691 0 5.473 1.025 7.2 1.834V2.17C18.151 1.206 15.315.6 12.674.6 7.82.6 4.588 3.13 4.588 7.262c0 4.068 3.73 5.643 6.933 6.754 2.855.935 3.83 1.576 3.83 2.594 0 1.002-.987 1.673-2.611 1.673-2.172 0-5.514-1.025-7.844-2.049v5.124c2.467 1.09 5.449 1.642 7.844 1.642 5.017 0 8.249-2.497 8.249-6.673 0-4.132-3.462-5.55-7.013-6.754z" fill="#635BFF"/>
</svg>
